<?xml version="1.0" encoding="UTF-8" standalone="no"?>
<svg
   version="1.1"
   id="Layer_1"
   x="0px"
   y="0px"
   width="1417.0425"
   viewBox="0 0 1417.0425 238.58932"
   enable-background="new 0 0 2000 2000"
   xml:space="preserve"
   sodipodi:docname="MedicalSpot (14).svg"
   height="238.58932"
   inkscape:version="1.1.2 (b8e25be8, 2022-02-05)"
   xmlns:inkscape="http://www.inkscape.org/namespaces/inkscape"
   xmlns:sodipodi="http://sodipodi.sourceforge.net/DTD/sodipodi-0.dtd"
   xmlns="http://www.w3.org/2000/svg"
   xmlns:svg="http://www.w3.org/2000/svg"><defs
   id="defs961" /><sodipodi:namedview
   id="namedview959"
   pagecolor="#ffffff"
   bordercolor="#666666"
   borderopacity="1.0"
   inkscape:pageshadow="2"
   inkscape:pageopacity="0.0"
   inkscape:pagecheckerboard="0"
   showgrid="false"
   fit-margin-top="0"
   fit-margin-left="0"
   fit-margin-right="0"
   fit-margin-bottom="0"
   inkscape:zoom="0.21812819"
   inkscape:cx="570.76529"
   inkscape:cy="570.76529"
   inkscape:window-width="1512"
   inkscape:window-height="843"
   inkscape:window-x="0"
   inkscape:window-y="38"
   inkscape:window-maximized="1"
   inkscape:current-layer="Layer_1" />

<path
   fill="#213c61"
   opacity="1"
   stroke="none"
   d="m 100.05728,179.18749 c -9.2868,0 -18.11111,0 -27.01721,0 -11.2991,-30.3157 -22.55746,-60.5219 -33.81583,-90.728118 -0.26382,0.0329 -0.52765,0.0657 -0.79147,0.0986 0,29.944778 0,59.889478 0,90.230678 -13.04138,0 -25.58679,0 -38.43277,0 0,-51.995 0,-104.063508 0,-156.776338 7.52853,0 14.96185,-6e-5 22.39517,0 6.16538,0 12.33927,0.19214 18.49265,-0.0793 3.18069,-0.14026 4.53549,1.01465 5.69079,3.90759 13.56757,33.97449 27.28302,67.88983 40.97766,101.813428 0.17579,0.4355 0.58915,0.7748 1.47132,1.8956 2.95352,-7.0614 5.78479,-13.6315 8.4592,-20.2649 5.95846,-14.778908 11.85076,-29.584568 17.74685,-44.388588 5.09348,-12.78863 10.06815,-25.62585 15.32926,-38.34491 0.74145,-1.79254 2.78326,-4.30047 4.27325,-4.33532 14.12183,-0.33027 28.25449,-0.19666 42.67389,-0.19666 0,52.47302 0,104.542678 0,156.890478 -12.4227,0 -24.86587,0 -37.94455,0 0,-30.0424 0,-60.18 0,-90.317478 -0.41632,-0.0866 -0.83261,-0.17316 -1.24893,-0.25971 -1.96515,4.89246 -4.03769,9.74488 -5.87732,14.684088 -9.04065,24.2728 -18.09763,48.5404 -26.91519,72.8944 -1.0332,2.8535 -2.38809,3.6248 -5.46677,3.2764 z"
   id="path924" />
<path
   fill="#02b467"
   opacity="1"
   stroke="none"
   d="m 1161.5954,62.963772 c 13.8795,10.83203 20.4928,25.36572 22.5648,41.938818 1.7748,14.1958 0.7593,28.3669 -4.8838,41.7879 -7.9526,18.9143 -22.1652,31.2309 -42.2716,34.1221 -17.432,2.5067 -33.5636,-2.3825 -45.6368,-17.8027 0,25.549 0,50.4227 0,75.5794 -12.8333,0 -25.2388,0 -37.9683,0 0,-61.3957 0,-122.6083 0,-184.114718 12.4103,0 24.8356,0 37.6755,0 0,4.99188 0,10.07776 0,15.50562 21.7743,-22.02094 45.2032,-22.81269 70.5202,-7.01642 m -20.3987,35.04297 c -7.1661,-10.34742 -17.2325,-14.06995 -29.163,-11.35492 -11.7733,2.67932 -18.2212,11.11456 -20.266,22.726068 -0.7397,4.1999 -0.6597,8.652 -0.2612,12.9244 1.2162,13.0374 10.968,23.5434 22.7144,24.9224 13.7325,1.6122 25.6494,-5.4008 29.7141,-18.1508 3.2906,-10.3225 3.0331,-20.641 -2.7383,-31.067148 z"
   id="path926" />
<path
   fill="#213b60"
   opacity="1"
   stroke="none"
   d="m 430.82248,13.438682 c 12.42297,-0.0709 24.3844,-0.0709 36.64764,-0.0709 0,55.36212 0,110.286328 0,165.514928 -12.33264,0 -24.77484,0 -37.84033,0 0,-4.9972 0,-10.1816 0,-15.3659 -0.45099,-0.2427 -0.90204,-0.4852 -1.35303,-0.7279 -2.75738,2.9931 -5.13958,6.4819 -8.33306,8.8985 -20.51337,15.5222 -52.38947,11.8638 -69.05164,-8.6573 -8.03113,-9.8911 -12.42206,-21.2978 -14.43524,-34.0709 -2.25568,-14.3111 -0.91889,-28.0109 4.16375,-41.225338 6.80268,-17.68634 21.19239,-32.29999 42.80701,-34.71375 13.29755,-1.48492 25.23169,1.00061 36.14484,8.40802 3.23071,2.19281 5.86084,5.27027 9.91156,8.99561 0,-2.72785 0,-4.23297 0,-5.7381 0,-15.33063 -0.0278,-30.66138 0.0385,-45.9917 0.008,-1.72925 0.54614,-3.4563 1.29999,-5.25525 m -27.08008,72.48371 c -14.8465,0.014 -25.6914,8.39428 -28.03455,22.377498 -0.83941,5.0096 -0.7879,10.3339 -0.15802,15.392 1.61121,12.9383 11.80793,22.737 23.92774,23.6932 13.39569,1.0569 24.34967,-6.1307 28.30029,-18.8041 2.48981,-7.987 2.59497,-16.1227 -0.12738,-24.0519 -3.74261,-10.900828 -11.32843,-17.330888 -23.90808,-18.606698 z"
   id="path928" />
<path
   fill="#213b60"
   opacity="1"
   stroke="none"
   d="m 690.50754,133.00639 c -0.24109,-8.3121 -1.01557,-16.1979 -0.76935,-24.0517 0.52081,-16.610918 6.51556,-31.328568 18.4912,-42.816908 11.4607,-10.99445 25.6945,-14.65118 41.5985,-13.21808 12.9258,1.16474 23.1885,6.63306 32.1862,17.00256 0,-5.5335 0,-10.34204 0,-15.43988 13.3452,0 26.0696,0 39.068,0 0,41.42426 0,82.804808 0,124.444808 -12.8168,0 -25.5404,0 -38.8717,0 0,-4.9728 0,-9.8153 0,-15.7879 -7.1188,8.1008 -14.5743,13.4985 -23.8981,16.0365 -21.0535,5.7309 -44.6125,-1.5981 -57.11701,-20.4579 -5.25439,-7.9248 -7.9635,-16.5165 -10.68774,-25.7115 m 49.81585,-42.483108 c -11.1024,8.88147 -15.0242,24.198608 -9.9338,38.798608 3.9481,11.3238 14.005,18.4 25.8493,18.188 11.8514,-0.2122 22.0155,-7.5164 24.968,-19.1663 1.4322,-5.6512 1.8427,-11.8835 1.1937,-17.6824 -2.3602,-21.084078 -23.1622,-31.194128 -42.0772,-20.137908 z"
   id="path930" />
<path
   fill="#02b467"
   opacity="1"
   stroke="none"
   d="m 999.62159,25.914512 c 18.47521,7.85675 27.30281,24.26374 27.45611,40.62415 -13.5805,0 -27.16311,0 -40.75811,0 -3.492,-13.70728 -11.8667,-17.0791 -25.2763,-15.10248 -5.9899,0.88294 -8.6749,5.96704 -9.4875,11.89105 -0.648,4.72431 1.9501,10.60681 7.2461,12.99768 9.5741,4.32209 19.5885,7.66779 29.1682,11.97876 9.3959,4.22809 19.42671,7.90003 27.50751,14.022018 18.0823,13.6992 17.6003,39.1173 6.0907,55.8858 -9.1378,13.3129 -22.63061,19.5326 -38.26611,21.9302 -13.1813,2.0211 -26.3125,1.118 -38.6353,-3.2457 -17.3656,-6.1494 -30.2477,-17.3564 -33.1872,-36.9528 -0.3686,-2.4562 -0.6376,-4.9275 -0.9853,-7.647 14.0424,0 27.1734,0 40.453,0 0.4134,1.0664 1.0116,2.0819 1.1974,3.168 2.8739,16.7837 23.9809,18.5233 34.0078,8.6907 3.2129,-3.1507 3.2356,-13.5082 0.066,-16.9765 -5.6914,-6.2277 -13.2657,-8.5159 -20.639,-11.3039 -10.8404,-4.0989 -22.3331,-6.8686 -32.5344,-12.159 -11.8974,-6.170178 -20.126,-15.995368 -21.5845,-30.466318 -2.8546,-28.32513 11.6381,-45.87769 37.6914,-51.35291 16.8401,-3.53894 33.8809,-3.33813 50.4696,4.01825 z"
   id="path932" />
<path
   fill="#213c61"
   opacity="1"
   stroke="none"
   d="m 317.23544,85.462242 c 5.82294,13.73774 7.6507,29.015648 4.74158,40.399948 -28.31952,0 -56.74963,0 -85.13287,0 -1.38202,13.0982 9.51342,24.2456 22.96472,23.9859 7.77295,-0.15 14.27045,-2.7472 18.6272,-9.676 0.71899,-1.1434 2.49279,-2.2805 3.79455,-2.2985 12.47553,-0.1721 24.95441,-0.103 37.9917,-0.103 -5.38269,18.3605 -16.36926,30.984 -33.61114,38.4576 -11.0824,4.8039 -22.7801,5.7262 -34.3133,4.6762 -13.20086,-1.2019 -25.22595,-6.1087 -35.27557,-15.709 -9.66773,-9.2355 -15.76557,-20.0851 -18.06305,-32.9999 -3.86148,-21.7068 -0.8927,-41.849638 13.60764,-59.633818 9.18246,-11.2619 21.25955,-16.62506 34.84597,-18.98444 15.28882,-2.65503 30.30072,-1.1922 44.46741,5.8371 11.39423,5.65381 19.42017,14.57568 25.35516,26.04791 m -45.36975,19.070148 c 4.05579,0 8.11164,0 12.20899,0 -0.97333,-13.302078 -9.43055,-21.083088 -22.3783,-21.378378 -13.84332,-0.31561 -23.60687,7.80848 -25.11725,21.378578 11.46399,0 22.87732,0 35.28656,-2e-4 z"
   id="path934" />
<path
   fill="#02b467"
   opacity="1"
   stroke="none"
   d="m 1197.6582,108.40439 c 0.7019,-11.752688 4.6181,-22.008368 11.2182,-30.955818 15.0884,-20.45489 36.2838,-26.40332 60.5968,-24.51214 10.5636,0.82165 20.4088,3.7785 29.3721,9.34796 15.3538,9.54052 24.2503,23.6781 27.294,41.216798 3.0908,17.8115 0.6225,34.8054 -9.6739,50.2559 -9.4297,14.1503 -22.7805,22.1451 -39.0764,25.6709 -18.2843,3.9556 -35.8551,1.835 -51.9372,-7.867 -14.6686,-8.8494 -23.645,-22.2535 -26.6314,-39.0602 -1.368,-7.6993 -0.8321,-15.7371 -1.1622,-24.0964 m 60.9721,-22.474678 c -10.275,1.44 -16.9525,7.35388 -20.169,16.979278 -2.9744,8.9014 -2.936,18.0152 -0.1665,27.0056 3.3228,10.7859 11.719,17.3262 22.6825,17.905 10.3774,0.5479 20.3586,-5.705 24.4707,-15.659 3.7572,-9.095 3.893,-18.4842 1.1523,-27.856 -3.7118,-12.691158 -13.888,-19.533938 -27.97,-18.374878 z"
   id="path936" />
<path
   fill="#213c61"
   opacity="1"
   stroke="none"
   d="m 553.37637,115.24279 c 0.59638,-17.185878 5.39777,-32.421478 16.75659,-44.951318 7.24531,-7.99231 16.62855,-12.71601 27.10071,-15.40339 13.63874,-3.50006 27.25989,-3.47894 40.6269,0.69947 21.29132,6.65564 33.35937,21.83984 38.66296,43.76648 -10.91437,0 -21.50031,-0.0927 -32.08344,0.0406 -4.98431,0.0627 -8.71954,-0.0955 -12.18737,-5.43763 -8.79425,-13.54718 -30.44916,-11.01379 -36.07965,4.36859 -4.72681,12.913408 -5.08722,25.728208 0.84625,38.349408 3.26208,6.9387 8.81622,10.8236 16.54864,11.5176 9.00049,0.8076 15.63031,-3.0599 20.04669,-10.5997 1.67505,-2.8597 3.52552,-3.7007 6.6894,-3.653 11.95135,0.1801 23.90704,0.072 35.94293,0.072 -4.77094,25.2821 -25.05585,43.3721 -50.34534,46.2968 -16.99158,1.9648 -32.63452,-0.436 -47.005,-10.1382 -12.78839,-8.6343 -20.10816,-20.735 -23.09027,-35.5661 -1.24787,-6.2058 -1.6457,-12.5825 -2.43,-19.362 z"
   id="path938" />
<path
   fill="#02b467"
   opacity="1"
   stroke="none"
   d="m 1393.1903,141.91369 c 3.1185,5.4675 8.4356,4.5394 12.9998,5.1717 3.4264,0.4749 6.9716,0.094 10.8424,0.094 0,10.5185 0,20.9117 0,31.9781 -16.8099,-0.5083 -34.29,2.8374 -49.6289,-8.0882 -7.8087,-5.562 -12.062,-13.6817 -12.5648,-22.7351 -1.0286,-18.5165 -0.8308,-37.1012 -1.129,-55.657978 -0.032,-1.97888 0,-3.95868 0,-6.42602 -5.0265,0 -9.776,0 -14.8689,0 0,-10.85334 0,-21.22175 0,-32.05372 4.8706,0 9.6275,0 14.8559,0 0,-10.20446 0,-19.95923 0,-30.07385 12.8874,0 25.2914,0 38.305,0 0,9.8009 0,19.66864 0,30.01447 8.6643,0 16.7342,0 25.0451,0 0,10.7398 0,20.992 0,31.77777 -8.0987,0 -16.161,0 -24.813,0 0,4.77893 -6e-4,9.04913 2e-4,13.31939 0,12.157638 -0.031,24.315538 0.042,36.472738 0.012,1.94 0.5,3.8772 0.9183,6.2068 z"
   id="path940" />
<path
   fill="#213b60"
   opacity="1"
   stroke="none"
   d="m 887.49969,148.18319 c 0,10.4747 0,20.4496 0,30.7126 -12.6939,0 -25.1118,0 -37.8585,0 0,-54.9799 0,-110.018448 0,-165.302748 12.5528,0 24.957,0 37.8585,0 0,44.85553 0,89.472848 0,134.590148 z"
   id="path942" />
<path
   fill="#213b60"
   opacity="1"
   stroke="none"
   d="m 533.75522,120.18329 c 6e-5,19.7982 6e-5,39.0965 6e-5,58.6984 -12.75122,0 -25.29498,0 -38.06055,0 0,-41.5224 0,-82.869638 0,-124.457778 12.62519,0 25.03034,0 38.06043,0 0,21.81159 0,43.53553 6e-5,65.759378 z"
   id="path944" />
<path
   fill="#213c61"
   opacity="1"
   stroke="none"
   d="m 491.54532,16.790612 c 2.14954,-5.53711 4.08246,-10.60046 9.31421,-13.63281 10.15692,-5.88709 32.12549,-4.62549 36.00366,13.15015 2.36053,10.81951 -4.65454,22.21716 -16.73145,24.46594 -8.64855,1.61041 -17.32598,0.61993 -23.66351,-7.21747 -3.94183,-4.87488 -5.59967,-10.2171 -4.92291,-16.76581 z"
   id="path946" />
<path
   fill="#fdfefe"
   opacity="1"
   stroke="none"
   d="m 1141.3711,98.332972 c 5.597,10.099918 5.8545,20.418418 2.5639,30.740918 -4.0647,12.75 -15.9816,19.763 -29.7141,18.1508 -11.7464,-1.379 -21.4982,-11.885 -22.7144,-24.9224 -0.3985,-4.2724 -0.4785,-8.7245 0.2612,-12.9244 2.0448,-11.611508 8.4927,-20.046748 20.266,-22.726068 11.9305,-2.71503 21.9969,1.0075 29.3374,11.68115 z"
   id="path948" />
<path
   fill="#fdfefe"
   opacity="1"
   stroke="none"
   d="m 404.19803,85.948942 c 12.12402,1.24926 19.70984,7.67932 23.45245,18.580148 2.72235,7.9292 2.61719,16.0649 0.12738,24.0519 -3.95062,12.6734 -14.9046,19.861 -28.30029,18.8041 -12.11981,-0.9562 -22.31653,-10.7549 -23.92774,-23.6932 -0.62988,-5.0581 -0.68139,-10.3824 0.15802,-15.392 2.34315,-13.983218 13.18805,-22.363458 28.49018,-22.350948 z"
   id="path950" />
<path
   fill="#fdfefe"
   opacity="1"
   stroke="none"
   d="m 740.63349,90.323942 c 18.6049,-10.85688 39.4069,-0.74683 41.7671,20.337248 0.649,5.7989 0.2385,12.0312 -1.1937,17.6824 -2.9525,11.6499 -13.1166,18.9541 -24.968,19.1663 -11.8443,0.212 -21.9012,-6.8642 -25.8493,-18.188 -5.0904,-14.6 -1.1686,-29.917138 10.2439,-38.997948 z"
   id="path952" />
<path
   fill="#fdfefe"
   opacity="1"
   stroke="none"
   d="m 271.36771,104.53249 c -11.91126,1e-4 -23.32459,1e-4 -34.78858,1e-4 1.51038,-13.570098 11.27393,-21.694188 25.11725,-21.378578 12.94775,0.29529 21.40497,8.0763 22.3783,21.378378 -4.09735,0 -8.1532,0 -12.70697,10e-5 z"
   id="path954" />
<path
   fill="#fdfefe"
   opacity="1"
   stroke="none"
   d="m 1259.0418,85.861232 c 13.6705,-1.09058 23.8467,5.7522 27.5585,18.443358 2.7407,9.3718 2.6049,18.761 -1.1523,27.856 -4.1121,9.954 -14.0933,16.2069 -24.4707,15.659 -10.9635,-0.5788 -19.3597,-7.1191 -22.6825,-17.905 -2.7695,-8.9904 -2.8079,-18.1042 0.1665,-27.0056 3.2165,-9.625398 9.894,-15.539278 20.5805,-17.047758 z"
   id="path956" />
</svg>
