<?xml version="1.0" encoding="UTF-8" standalone="no"?>
<svg
   version="1.1"
   id="Layer_1"
   x="0px"
   y="0px"
   width="1417.4508"
   viewBox="0 0 1417.4508 239.49854"
   enable-background="new 0 0 2000 2000"
   xml:space="preserve"
   sodipodi:docname="MedicalSpot (15).svg"
   height="239.49854"
   inkscape:version="1.1.2 (b8e25be8, 2022-02-05)"
   xmlns:inkscape="http://www.inkscape.org/namespaces/inkscape"
   xmlns:sodipodi="http://sodipodi.sourceforge.net/DTD/sodipodi-0.dtd"
   xmlns="http://www.w3.org/2000/svg"
   xmlns:svg="http://www.w3.org/2000/svg"><defs
   id="defs1259" /><sodipodi:namedview
   id="namedview1257"
   pagecolor="#ffffff"
   bordercolor="#666666"
   borderopacity="1.0"
   inkscape:pageshadow="2"
   inkscape:pageopacity="0.0"
   inkscape:pagecheckerboard="0"
   showgrid="false"
   fit-margin-top="0"
   fit-margin-left="0"
   fit-margin-right="0"
   fit-margin-bottom="0"
   inkscape:zoom="0.22046137"
   inkscape:cx="805.1297"
   inkscape:cy="-34.019565"
   inkscape:window-width="1512"
   inkscape:window-height="843"
   inkscape:window-x="0"
   inkscape:window-y="38"
   inkscape:window-maximized="1"
   inkscape:current-layer="Layer_1" />

<path
   fill="#fdfdfd"
   opacity="1"
   stroke="none"
   d="m 139.46131,150.55296 c 0,-21.0638 0,-41.6277 0,-62.19159 -0.28717,-0.0608 -0.57437,-0.12164 -0.86154,-0.18243 -0.74799,1.93664 -1.51618,3.86572 -2.24097,5.81103 -10.0379,26.94119 -20.15363,53.85399 -30.00733,80.86239 -1.38326,3.7914 -3.18841,4.9701 -7.14465,4.8106 -8.47687,-0.3418 -16.97708,-0.1046 -25.77395,-0.1046 -11.36548,-30.3207 -22.71064,-60.5871 -34.05582,-90.85361 -0.2937,0.0504 -0.58743,0.10071 -0.88113,0.15107 0,29.96364 0,59.92734 0,90.29574 -13.01377,0 -25.57316,0 -38.49592,0 0,-51.872 0,-103.93332 0,-156.4628 1.21183,-0.11175 2.62442,-0.3518 4.03763,-0.35522 12.32822,-0.0299 24.6583,0.0969 36.98358,-0.0952 3.19492,-0.0499 4.53366,1.02185 5.71677,3.97266 13.11166,32.7016 26.40332,65.33099 39.6506,97.97818 0.74845,1.8444 1.53486,3.6732 2.68641,6.4237 0.98965,-2.2279 1.72564,-3.7547 2.35644,-5.3238 C 104.6959,92.2926 117.99524,59.31 131.12275,26.2591 c 1.16253,-2.92707 2.44805,-4.06788 5.67532,-4.02253 13.47232,0.18921 26.94879,0.0797 40.793,0.0797 0,52.4743 0,104.65429 0,157.03849 -12.58197,0 -25.02377,0 -38.12976,0 0,-9.4508 0,-18.8764 0,-28.8018 z"
   id="path1222" />
<path
   fill="#00b266"
   opacity="1"
   stroke="none"
   d="m 1175.2005,155.31446 c -14.339,24.536 -43.3198,31.7861 -65.1599,22.0061 -6.6241,-2.9663 -12.2499,-8.1623 -18.6549,-12.5579 0,1.3953 0,3.1345 0,4.8738 -2e-4,21.4924 -0.1028,42.9856 0.088,64.4764 0.037,4.1891 -1.2564,5.4639 -5.3827,5.3407 -8.9889,-0.2686 -18.0036,-0.3664 -26.983,0.028 -5.0695,0.2226 -6.0142,-1.7365 -5.9916,-6.34 0.1711,-34.8202 0.093,-69.6416 0.093,-104.4626 0,-22.6587 0.1207,-45.3185 -0.1,-67.97506 -0.045,-4.65375 0.9963,-6.48016 6.0154,-6.26581 9.3131,0.39759 18.6569,0.22034 27.9842,0.0593 3.231,-0.0558 4.5125,0.98156 4.3231,4.28125 -0.2181,3.79937 -0.051,7.62085 -0.051,11.78314 0.763,-0.38123 1.2893,-0.4743 1.5268,-0.78687 19.7639,-26.01947 66.0631,-22.65814 83.2277,10.5503 12.7987,24.76168 12.2756,49.91358 -0.9361,74.98928 m -34.4,-57.53909 c -6.8763,-9.52105 -16.4079,-12.9433 -27.625,-11.00397 -10.0083,1.73035 -17.0273,8.03937 -19.861,17.65896 -1.6953,5.7555 -2.0638,12.1646 -1.7174,18.2047 0.7364,12.8443 11.1111,23.7504 22.7125,24.9346 14.7031,1.5009 26.1912,-5.864 30.0913,-19.745 2.8499,-10.1429 2.1822,-20.0952 -3.6004,-30.04929 z"
   id="path1224" />
<path
   fill="#fdfdfd"
   opacity="1"
   stroke="none"
   d="m 345.62916,155.32586 c -13.54047,-26.5655 -14.05768,-52.9405 1.16467,-78.34724 13.96832,-23.31366 44.53521,-31.20197 67.77166,-18.38916 5.27369,2.90796 9.75318,7.25623 14.75,11.05701 0,-18.14594 0,-36.79279 0,-55.70289 13.02253,0 25.44806,0 38.24586,0 0,55.00556 0,110.02858 0,165.33328 -12.57569,0 -25.11658,0 -38.04737,0 0,-5.2591 0,-10.34 0,-16.728 -13.08191,16.5621 -29.55462,21.2149 -48.51001,17.8828 -15.47345,-2.72 -26.99097,-11.5124 -35.37481,-25.1058 m 74.08044,-13.9177 c 12.20776,-10.1296 11.9342,-31.8804 5.31848,-42.32157 -5.97559,-9.43066 -14.672,-13.76105 -25.81225,-12.62 -10.56061,1.08167 -18.4488,6.71851 -21.58484,16.65347 -2.07874,6.5855 -2.81104,14.1812 -1.88886,21.0202 2.90674,21.5586 25.95038,30.6766 43.96747,17.2679 z"
   id="path1226" />
<path
   fill="#fefefe"
   opacity="1"
   stroke="none"
   d="m 717.75092,174.19046 c -18.42926,-11.688 -26.21185,-29.1235 -28.05444,-49.6215 -1.4104,-15.6904 0.74816,-30.89924 8.72589,-44.8639 12.85635,-22.5044 39.06955,-32.57349 63.08065,-24.27326 8.2365,2.84729 14.9437,7.80317 21.1397,15.7074 0,-6.0816 0,-11.05346 0,-16.29876 13.1436,0 25.5588,0 38.3558,0 0,41.1972 0,82.57042 0,124.32972 -12.2734,0 -24.8282,0 -37.8556,0 0,-4.9516 0,-10.0459 0,-16.0693 -19.3863,20.7589 -41.0727,23.299 -65.392,11.0896 m 18.3043,-79.45372 c -8.7154,10.63642 -10.2517,27.35982 -3.6155,39.36152 9.0348,16.3401 31.2809,18.711 43.4588,4.5414 6.6588,-7.7478 7.7306,-17.0157 6.7088,-26.7536 -1.1727,-11.1777 -6.4937,-19.70444 -17.0855,-23.75308 -10.6564,-4.07325 -20.6026,-2.07776 -29.4666,6.60376 z"
   id="path1228" />
<path
   fill="#00b266"
   opacity="1"
   stroke="none"
   d="m 1029.2422,139.08246 c -4.0434,25.9985 -25.5963,39.2107 -47.15258,41.4947 -17.5224,1.8564 -34.3288,-0.2106 -49.5452,-9.5815 -13.871,-8.5423 -21.0153,-21.2595 -21.7417,-37.8856 1.3936,-0.2175 2.4993,-0.5363 3.6062,-0.5401 10.9969,-0.038 21.9943,0.019 32.9909,-0.056 2.6017,-0.018 4.3484,0.3544 4.9467,3.4654 2.9756,15.4707 21.2804,17.5522 31.183,10.9448 7.3038,-4.8734 8.2677,-15.4627 1.3468,-21.0868 -4.5282,-3.6798 -10.1712,-6.2484 -15.6684,-8.4192 -10.3617,-4.0917 -21.2153,-6.9855 -31.4364,-11.3741 -17.1382,-7.35855 -26.7332,-20.0734 -26.5063,-39.56424 0.2285,-19.62036 9.5091,-33.46686 27.1122,-40.487 24.1027,-9.61206 48.2671,-9.20539 70.67288,5.5647 11.0839,7.30651 16.4637,18.43096 18.2288,31.43109 0.446,3.28503 -0.7258,4.45367 -4.0536,4.4118 -10.9955,-0.13843 -21.9944,-0.12402 -32.99028,-0.005 -3.051,0.033 -4.2101,-1.055 -4.972,-4.10102 -2.9441,-11.76892 -20.3624,-16.79059 -29.3112,-8.64831 -6.2042,5.64483 -4.9836,17.64105 2.7172,21.901 5.7925,3.20441 12.0772,5.56561 18.2588,8.0083 8.0492,3.18048 16.3716,5.70618 24.29688,9.156 20.6169,8.97438 30.2084,22.82078 28.0173,45.37118 z"
   id="path1230" />
<path
   fill="#fdfdfd"
   opacity="1"
   stroke="none"
   d="m 299.3935,126.37726 c -21.28931,0 -42.07862,0 -62.86017,0 -0.0894,10.8719 5.87488,19.4082 15.40698,22.5423 10.45856,3.4385 20.18274,0.2899 26.43707,-8.4541 0.69831,-0.9762 1.8689,-2.2871 2.83405,-2.2985 12.92114,-0.1531 25.84479,-0.1024 39.40564,-0.1024 -6.56116,21.4097 -20.00134,34.8729 -40.76105,40.8463 -25.9704,7.4725 -54.1051,-0.9586 -69.11209,-20.4465 -17.88498,-23.2255 -17.38068,-62.35384 1.48258,-84.78091 14.15069,-16.82397 33.18267,-22.22406 54.27496,-20.74817 38.62292,2.70252 60.26916,32.05506 56.5199,70.66398 -0.0783,0.8062 -0.3985,1.5891 -0.70911,2.778 -7.49579,0 -14.95728,0 -22.91876,0 M 251.64808,84.9525 c -8.89289,3.43304 -13.67084,10.05218 -15.22174,19.57566 15.95391,0 31.6701,0 47.57134,0 -0.1668,-8.5413 -3.91052,-14.51438 -11.20477,-18.23008 -6.54577,-3.33441 -13.39569,-3.5008 -21.14483,-1.34558 z"
   id="path1232" />
<path
   fill="#00b266"
   opacity="1"
   stroke="none"
   d="m 1198.179,106.38266 c 3.2534,-27.46996 25.0903,-49.25249 52.1056,-52.82341 16.5245,-2.18415 32.2628,-0.33606 46.8452,7.98651 23.7498,13.55469 32.8956,38.8952 29.6913,64.4912 -3.125,24.9609 -16.2994,42.9623 -40.3385,51.1276 -25.5462,8.6771 -49.8562,5.5902 -70.4622,-13.0264 -12.0135,-10.8538 -17.5117,-25.3346 -18.4625,-41.389 -0.3129,-5.281 0.3368,-10.6191 0.6211,-16.3665 m 45.3052,33.5413 c 11.7818,11.8215 29.4792,10.8117 39.1158,-2.232 7.5343,-10.1981 7.8269,-30.3852 0.4358,-40.76333 -5.4062,-7.59118 -12.8635,-11.61499 -22.2306,-10.97662 -9.9145,0.67578 -17.7223,5.44836 -21.3138,14.85365 -5.0524,13.2308 -4.9101,26.3739 3.9928,39.1183 z"
   id="path1234" />
<path
   fill="#fefefe"
   opacity="1"
   stroke="none"
   d="m 602.74427,180.19796 c -31.55921,-6.949 -49.77088,-31.1902 -48.87793,-64.6091 0.31067,-11.6284 2.47931,-22.78486 8.24255,-33.06111 12.04108,-21.47009 36.11273,-32.66076 63.02759,-29.26593 26.74774,3.37378 44.53442,18.64655 50.88586,43.70911 0.1933,0.76282 0.25855,1.55816 0.4588,2.80865 -13.16882,0 -25.94128,0.0604 -38.71063,-0.11224 -1.04394,-0.014 -2.49585,-1.40839 -3.03058,-2.51343 -4.03442,-8.33734 -10.81793,-11.92212 -19.79199,-11.56396 -9.09546,0.36291 -15.45129,5.11938 -18.69238,13.42627 -4.71942,12.09594 -4.72132,24.45814 0.16675,36.49854 3.26947,8.0533 9.57348,12.6611 18.46478,13.0181 8.97815,0.3603 15.7511,-3.1908 19.83642,-11.5063 0.58179,-1.184 2.27643,-2.5694 3.47498,-2.5872 12.61304,-0.1878 25.22986,-0.1161 38.44397,-0.1161 -4.74261,20.0134 -15.51422,34.417 -34.23639,42.2662 -12.63788,5.2986 -25.84662,5.8297 -39.6618,3.6085 z"
   id="path1236" />
<path
   fill="#00b266"
   opacity="1"
   stroke="none"
   d="m 1353.5862,94.62083 c -0.015,-8.12683 -0.015,-8.10498 -7.4486,-8.1383 -8.5986,-0.0386 -7.6157,0.7785 -7.6639,-7.86805 -0.036,-6.4978 0.1397,-13.00061 -0.065,-19.49218 -0.1075,-3.41248 0.9581,-4.62897 4.5107,-4.65094 10.6666,-0.066 10.6652,-0.21155 10.6661,-10.81629 4e-4,-5.1651 0.1216,-10.3338 -0.037,-15.49402 -0.1002,-3.26684 1.2533,-4.41626 4.4336,-4.38257 9.9958,0.10615 19.9949,0.12256 29.99,-0.0133 3.1913,-0.0434 4.4585,0.97656 4.3769,4.29974 -0.184,7.49311 0.044,14.99585 -0.098,22.49085 -0.058,3.04333 1.0601,4.12597 4.0809,4.03894 5.6601,-0.16315 11.3321,0.079 16.992,-0.0876 3.044,-0.0897 4.1061,1.03198 4.0519,4.05774 -0.1433,7.995 -0.1498,15.99622 0,23.99091 0.059,3.1311 -1.2291,4.04821 -4.1586,3.971 -5.4945,-0.14477 -10.9991,0.0816 -16.4927,-0.0822 -3.0914,-0.0922 -4.5159,0.75446 -4.4854,4.17169 0.1383,15.49417 -0.017,30.99087 0.1183,46.48497 0.058,6.6752 2.8376,9.3414 9.4776,9.6034 3.8268,0.151 7.6673,0.1874 11.4935,0.051 2.9521,-0.1051 4.1772,0.9148 4.1204,4.0182 -0.1523,8.328 -0.1235,16.6616 -0.013,24.9909 0.037,2.7548 -0.8945,3.9372 -3.7414,3.8123 -9.302,-0.4085 -18.6952,-0.011 -27.8965,-1.1696 -18.1276,-2.2821 -30.135,-14.688 -31.2487,-32.8755 -1.0265,-16.7642 -0.697,-33.6117 -0.9646,-50.91133 z"
   id="path1238" />
<path
   fill="#ffffff"
   opacity="1"
   stroke="none"
   d="m 887.47982,178.35346 c -4.1411,0.7217 -8.2238,1.1155 -12.3107,1.1674 -8.4559,0.1073 -16.9143,0.032 -25.6066,0.032 0,-55.3977 0,-110.413 0,-165.64279 12.665,0 25.0673,0 37.9738,0 0,54.80816 0,109.38429 -0.057,164.44289 z"
   id="path1240" />
<path
   fill="#fbfcfc"
   opacity="1"
   stroke="none"
   d="m 533.91352,67.57139 c -6e-5,37.45437 -6e-5,74.41177 -6e-5,111.67857 -12.9029,0 -25.44226,0 -38.22321,0 0,-41.3791 0,-82.63737 0,-124.29948 12.42676,0 24.98389,0 38.22327,0 0,3.92499 0,8.02442 0,12.62091 z"
   id="path1242" />
<path
   fill="#fdfdfd"
   opacity="1"
   stroke="none"
   d="m 517.98944,41.46714 c -3.89923,-0.27575 -7.46935,-0.1311 -10.78802,-0.97534 -9.16968,-2.33258 -15.08179,-10.00818 -15.28046,-19.16711 -0.20001,-9.22046 5.35773,-16.9232803 14.37372,-19.9212703 11.802,-3.92437 24.50977,0.62104 29.16821,10.6445403 6.16956,13.27514 -2.21112,27.53277 -17.47345,29.41918 z"
   id="path1244" />
<path
   fill="#1f3a5f"
   opacity="1"
   stroke="none"
   d="m 1141.0051,98.07945 c 5.578,9.65001 6.2457,19.60231 3.3958,29.74521 -3.9001,13.881 -15.3882,21.2459 -30.0913,19.745 -11.6014,-1.1842 -21.9761,-12.0903 -22.7125,-24.9346 -0.3464,-6.0401 0.022,-12.4492 1.7174,-18.2047 2.8337,-9.61959 9.8527,-15.92861 19.861,-17.65896 11.2171,-1.93933 20.7487,1.48292 27.8296,11.30805 z"
   id="path1246"
   style="fill:#1f3a5f;fill-opacity:0" />
<path
   fill="#213c60"
   opacity="1"
   stroke="none"
   d="m 419.42829,141.63626 c -17.73578,13.1806 -40.77942,4.0626 -43.68616,-17.496 -0.92218,-6.839 -0.18988,-14.4347 1.88886,-21.0202 3.13604,-9.93496 11.02423,-15.5718 21.58484,-16.65347 11.14025,-1.14105 19.83666,3.18934 25.81225,12.62 6.61572,10.44117 6.88928,32.19197 -5.59979,42.54967 z"
   id="path1248"
   style="fill:#213c60;fill-opacity:0" />
<path
   fill="#213c60"
   opacity="1"
   stroke="none"
   d="m 736.30052,94.47386 c 8.6187,-8.41864 18.5649,-10.41413 29.2213,-6.34088 10.5918,4.04864 15.9128,12.57538 17.0855,23.75308 1.0218,9.7379 -0.05,19.0058 -6.7088,26.7536 -12.1779,14.1696 -34.424,11.7987 -43.4588,-4.5414 -6.6362,-12.0017 -5.0999,-28.7251 3.8608,-39.6244 z"
   id="path1250"
   style="fill:#213c60;fill-opacity:0" />
<path
   fill="#213c60"
   opacity="1"
   stroke="none"
   d="m 252.02918,84.81504 c 7.36804,-2.01776 14.21796,-1.85137 20.76373,1.48304 7.29425,3.7157 11.03797,9.68878 11.20477,18.23008 -15.90124,0 -31.61743,0 -47.57134,0 1.5509,-9.52348 6.32885,-16.14262 15.60284,-19.71312 z"
   id="path1252"
   style="fill:#213c60;fill-opacity:0" />
<path
   fill="#1f3a5f"
   opacity="1"
   stroke="none"
   d="m 1243.257,139.64276 c -8.6757,-12.4632 -8.818,-25.6063 -3.7656,-38.8371 3.5915,-9.40529 11.3993,-14.17787 21.3138,-14.85365 9.3671,-0.63837 16.8244,3.38544 22.2306,10.97662 7.3911,10.37813 7.0985,30.56523 -0.4358,40.76333 -9.6366,13.0437 -27.334,14.0535 -39.343,1.9508 z"
   id="path1254"
   style="fill:#1f3a5f;fill-opacity:0.0132744" />
</svg>
